<svg xmlns="http://www.w3.org/2000/svg" fill="none" viewBox="0 0 16 16" id="Phone-Call-Duotone--Streamline-Phosphor" height="16" width="16"><desc>Phone Call Duotone Streamline Icon: https://streamlinehq.com</desc><g id="phone-call-duotone"><path id="Vector" fill="#c4c4c3" d="M13.49625 11.38c-0.097125 0.725625 -0.4544375 1.391375 -1.0055625 1.87325 -0.551125 0.4819375 -1.2585625 0.7473125 -1.9906875 0.74675 -2.2543125 0 -4.41635 -0.8955625 -6.01040625 -2.4895625C2.89553125 9.916375 2 7.7543125 2 5.5c-0.00055625 -0.73211875 0.2648 -1.43953125 0.746725 -1.9906625C3.22865625 2.9582 3.89434375 2.60085 4.62 2.50375c0.10726875 -0.01274375 0.2157875 0.0096 0.3093 0.063675 0.0935125 0.05408125 0.16699375 0.13699375 0.20945 0.236325l1.320625 2.95c0.0324375 0.07576875 0.0456875 0.15838125 0.0384375 0.24049375 -0.0071875 0.08210625 -0.0345625 0.1611625 -0.0796875 0.23013125L5.0825 7.8125c-0.047375 0.0715 -0.07539375 0.1540625 -0.08130625 0.239625 -0.00591875 0.0855625 0.01046875 0.1711875 0.04755625 0.2485 0.516875 1.058125 1.610625 2.13875 2.671875 2.650625 0.07775 0.0369375 0.16375 0.0529375 0.2495625 0.0465 0.0858125 -0.0065 0.1685 -0.0351875 0.2398125 -0.083375l1.5625 -1.33125c0.06925 -0.0460625 0.148875 -0.074125 0.23175 -0.0816875 0.0828125 -0.0075 0.1661875 0.00575 0.242625 0.0385625l2.9475 1.320625c0.0998125 0.0421875 0.1831875 0.115625 0.237625 0.2093125 0.0544375 0.093625 0.077 0.2025 0.06425 0.3100625Z" stroke-width="0.0625"></path><path id="Vector_2" fill="#000000" d="M9.016875 2.87061875c0.017 -0.06345625 0.0463125 -0.12294375 0.08625 -0.17506875 0.04 -0.05211875 0.0898125 -0.09585625 0.1466875 -0.1287125 0.056875 -0.03285 0.1196875 -0.05416875 0.1848125 -0.06274375 0.065125 -0.008575 0.1313125 -0.00423125 0.19475 0.012775 0.9269375 0.24184375 1.772625 0.72640625 2.45 1.403775 0.677375 0.67736875 1.1619375 1.5230625 1.40375 2.44998125 0.017 0.0634375 0.021375 0.129625 0.0128125 0.19475 -0.008625 0.065125 -0.0299375 0.1279375 -0.06275 0.1848125 -0.032875 0.056875 -0.076625 0.1066875 -0.12875 0.1466875 -0.052125 0.0399375 -0.111625 0.06925 -0.1750625 0.08625 -0.04225 0.0110625 -0.0856875 0.01675 -0.129375 0.016875 -0.1101875 0 -0.21725 -0.036375 -0.304625 -0.1035625 -0.087375 -0.067125 -0.150125 -0.16125 -0.1785 -0.2676875 -0.19725 -0.75668125 -0.5926875 -1.4470625 -1.145625 -1.9999875 -0.5529375 -0.55293125 -1.2433125 -0.9484 -2 -1.14564375 -0.0635 -0.01690625 -0.1230625 -0.0461625 -0.17525 -0.08610625 -0.0521875 -0.03994375 -0.096 -0.08978125 -0.1289375 -0.14666875 -0.032875 -0.05689375 -0.05425 -0.11970625 -0.062875 -0.1848625 -0.008625 -0.06515625 -0.0043125 -0.131375 0.0126875 -0.1948625Zm-0.145625 2.6125c0.861875 0.23 1.415625 0.78375625 1.645625 1.64563125 0.028375 0.1064375 0.091125 0.2005625 0.1785 0.2676875 0.087375 0.0671875 0.1944375 0.1035625 0.304625 0.1035625 0.0436875 -0.000125 0.087125 -0.0058125 0.129375 -0.016875 0.0634375 -0.017 0.1229375 -0.0463125 0.1750625 -0.08625 0.052125 -0.04 0.095875 -0.0898125 0.12875 -0.1466875 0.0328125 -0.056875 0.054125 -0.1196875 0.06275 -0.1848125 0.0085625 -0.065125 0.0041875 -0.1313125 -0.0128125 -0.19475 -0.32 -1.19750625 -1.15625 -2.03375625 -2.35375 -2.35375625 -0.128125 -0.034225 -0.264625 -0.01615625 -0.3794375 0.05024375 -0.1148125 0.0664 -0.1985 0.1756875 -0.23275 0.30381875 -0.03425 0.1281375 -0.016125 0.26461875 0.05025 0.379425s0.1756875 0.1985375 0.3038125 0.2327625Zm5.12125 5.95938125c-0.1114375 0.846875 -0.527375 1.62425 -1.1700625 2.1869375C12.17975 14.1920625 11.3541875 14.5015 10.5 14.5 5.53750625 14.5 1.50000625 10.4625 1.50000625 5.49999375c-0.00153125 -0.85419375 0.30793125 -1.67973125 0.87058125 -2.3224375 0.56265625 -0.64270625 1.340025 -1.05861875 2.18691875 -1.1700625 0.21415625 -0.02615 0.43103125 0.01766875 0.61824375 0.1249 0.18720625 0.1072375 0.33471875 0.27214375 0.42050625 0.4701l1.31999375 2.946875v0.0075c0.0656875 0.1515375 0.0928125 0.316975 0.0789375 0.48155 -0.0138125 0.164575 -0.06825 0.32314375 -0.1583125 0.46158125 -0.01125 0.016875 -0.023125 0.0325 -0.035625 0.048125l-1.30124375 1.5425c0.468125 0.95125 1.46311875 1.9375 2.42686875 2.406875l1.52125 -1.294375c0.0149375 -0.0125625 0.030625 -0.02425 0.046875 -0.035 0.1383125 -0.09225 0.2974375 -0.1485625 0.463 -0.1638125 0.1655625 -0.0153125 0.33225 0.0109375 0.485125 0.0763125l0.008125 0.00375 2.944375 1.319375c0.1983125 0.0855 0.363625 0.232875 0.4711875 0.420125 0.107625 0.1871875 0.1516875 0.40425 0.1256875 0.618625Zm-0.9925 -0.125 -0.006875 0 -2.9375 -1.315625 -1.521875 1.294375c-0.01475 0.0125 -0.0301875 0.0241875 -0.04625 0.035 -0.143875 0.096 -0.31025 0.1530625 -0.48275 0.1655 -0.1725625 0.0125 -0.345375 -0.02 -0.501625 -0.09425 -1.170625 -0.565625 -2.33749375 -1.72375 -2.90374375 -2.881875 -0.07498125 -0.155125 -0.10863125 -0.3269375 -0.09768125 -0.4988125 0.01095 -0.1719375 0.066125 -0.338125 0.16018125 -0.4824375 0.0106 -0.0169375 0.0225125 -0.0330625 0.035625 -0.048125l1.3025 -1.54438125 -1.3125 -2.9375c-0.00025 -0.00249375 -0.00025 -0.00500625 0 -0.0075 -0.60609375 0.0790625 -1.162575 0.37635625 -1.56524375 0.8362 -0.4026625 0.45984375 -0.62389375 1.05070625 -0.62225625 1.661925 0.0023125 2.12100625 0.8459125 4.15450625 2.3457 5.65431875C6.3455 12.6540625 8.379 13.4976875 10.5 13.5c0.610875 0.0020625 1.2015625 -0.218375 1.6616875 -0.620125 0.4600625 -0.4018125 0.758125 -0.9574375 0.8383125 -1.563v0.000625Z" stroke-width="0.0625"></path></g></svg>